<svg width="50" height="50" viewBox="0 0 50 50" fill="none" xmlns="http://www.w3.org/2000/svg">
<rect x="1" y="1" width="48" height="48" rx="24" stroke="#38D9A9" stroke-width="2"/>
<path d="M24.2 29.6C24.6 30.1 25.4 30.1 25.8 29.6L31.8 23.3C32.3 22.8 31.8 22 31 22H27C27 22 27.2 17.4 27 15C26.9 13.9 26.1 13 25 13C23.9 13 23.1 13.9 23 15C22.8 17.3 23 22 23 22H19C18.2 22 17.7 22.8 18.2 23.4L24.2 29.6Z" fill="#38D9A9"/>
<path d="M32 32H18C16.9 32 16 32.9 16 34C16 34.6 16.4 35 17 35H33C33.6 35 34 34.6 34 34C34 32.9 33.1 32 32 32Z" fill="#38D9A9"/>
</svg>
